<?xml version="1.0" standalone="no"?>
<!DOCTYPE svg PUBLIC "-//W3C//DTD SVG 20010904//EN"
 "http://www.w3.org/TR/2001/REC-SVG-20010904/DTD/svg10.dtd">
<svg version="1.0" xmlns="http://www.w3.org/2000/svg"
 width="24.000000pt" height="24.000000pt" viewBox="0 0 24.000000 24.000000"
 preserveAspectRatio="xMidYMid meet">

<g transform="translate(0.000000,24.000000) scale(0.100000,-0.100000)"
fill="#000000" stroke="none">
<path d="M34 206 c-29 -29 -34 -41 -34 -83 0 -55 17 -86 60 -108 88 -46 180
13 180 116 0 33 -6 47 -34 75 -30 30 -40 34 -86 34 -46 0 -56 -4 -86 -34z
m148 -23 c39 -37 38 -84 -1 -124 -36 -35 -77 -38 -115 -8 -39 31 -49 63 -32
103 17 41 39 55 85 56 24 0 43 -8 63 -27z"/>
<path d="M145 160 c-11 -5 -30 -6 -42 -3 -25 6 -32 -14 -12 -34 8 -8 8 -13 0
-17 -22 -14 -10 -23 30 -23 35 0 40 2 35 19 -6 25 3 50 15 42 5 -3 9 -1 9 5 0
15 -13 19 -35 11z"/>
</g>
</svg>
