<?xml version="1.0" standalone="no"?>
<!DOCTYPE svg PUBLIC "-//W3C//DTD SVG 20010904//EN"
 "http://www.w3.org/TR/2001/REC-SVG-20010904/DTD/svg10.dtd">
<svg version="1.0" xmlns="http://www.w3.org/2000/svg"
 width="24.000000pt" height="24.000000pt" viewBox="0 0 24.000000 24.000000"
 preserveAspectRatio="xMidYMid meet">

<g transform="translate(0.000000,24.000000) scale(0.100000,-0.100000)"
fill="#000000" stroke="none">
<path d="M34 206 c-29 -29 -34 -41 -34 -83 0 -55 17 -86 60 -108 88 -46 180
13 180 116 0 33 -6 47 -34 75 -30 30 -40 34 -86 34 -46 0 -56 -4 -86 -34z
m148 -23 c39 -37 38 -84 -1 -124 -36 -35 -77 -38 -115 -8 -39 31 -49 63 -32
103 17 41 39 55 85 56 24 0 43 -8 63 -27z"/>
<path d="M130 145 c-17 -18 -30 -23 -47 -19 -16 4 -23 2 -23 -8 0 -19 20 -38
40 -38 22 0 84 65 76 79 -11 16 -20 14 -46 -14z"/>
</g>
</svg>
