<?xml version="1.0" encoding="utf-8"?>
<svg xmlns="http://www.w3.org/2000/svg"
	xmlns:xlink="http://www.w3.org/1999/xlink"
	width="13px" height="12px" viewBox="0 0 13 12">
<path fillRule="evenodd" d="M 12.89 7.07C 12.8 7.28 12.65 7.46 12.48 7.62 12.48 7.62 8.52 11.57 8.52 11.57 7.96 12.14 7.04 12.14 6.48 11.57 5.91 11.01 5.91 10.09 6.48 9.53 6.48 9.53 8.01 8 8.01 8 8.01 8 1.5 8 1.5 8 0.67 8 0 7.33 0 6.5 0 5.67 0.67 5 1.5 5 1.5 5 8.08 5 8.08 5 8.08 5 6.48 3.4 6.48 3.4 5.91 2.84 5.91 1.92 6.48 1.36 7.04 0.79 7.96 0.79 8.52 1.36 8.52 1.36 12.61 5.44 12.61 5.44 13.05 5.88 13.13 6.53 12.89 7.07Z" fill="rgb(255,255,255)"/></svg>