<?xml version="1.0" encoding="utf-8"?>
<svg xmlns="http://www.w3.org/2000/svg"
	xmlns:xlink="http://www.w3.org/1999/xlink"
	width="24px" height="15px" viewBox="0 0 24 15">
<path fillRule="evenodd" d="M 21.35 8.07C 21.35 8.07 21.35 10.68 21.35 10.68 21.35 10.68 19.42 10.68 19.42 10.68 19.42 10.68 19.42 8.07 19.42 8.07 19.42 8.07 16.77 8.07 16.77 8.07 16.77 8.07 16.77 6.17 16.77 6.17 16.77 6.17 19.42 6.17 19.42 6.17 19.42 6.17 19.42 3.56 19.42 3.56 19.42 3.56 21.35 3.56 21.35 3.56 21.35 3.56 21.35 6.17 21.35 6.17 21.35 6.17 24 6.17 24 6.17 24 6.17 24 8.07 24 8.07 24 8.07 21.35 8.07 21.35 8.07ZM 7.62 15C 3.41 15 0 11.64 0 7.5 0 3.36 3.41 0 7.62 0 9.6 0 11.4 0.75 12.75 1.97 12.75 1.97 10.51 4.13 10.51 4.13 9.73 3.48 8.72 3.09 7.62 3.09 5.14 3.09 3.13 5.06 3.13 7.5 3.13 9.94 5.14 11.91 7.62 11.91 9.53 11.91 11.16 10.73 11.81 9.07 11.81 9.07 7.52 9.07 7.52 9.07 7.52 9.07 7.52 5.93 7.52 5.93 7.52 5.93 11.81 5.93 11.81 5.93 11.81 5.93 15.04 5.93 15.04 5.93 15.04 5.93 15.06 5.93 15.06 5.93 15.17 6.44 15.23 6.96 15.23 7.5 15.23 11.64 11.82 15 7.62 15Z" fill="rgb(37,39,45)" opacity="0.30"/></svg>