<?xml version="1.0" encoding="utf-8"?>
<svg xmlns="http://www.w3.org/2000/svg"
	xmlns:xlink="http://www.w3.org/1999/xlink"
	width="42px" height="51px" viewBox="0 0 42 51">
<path fillRule="evenodd" d="M 38 48C 38.55 48 39 47.55 39 47 39 47 39 24 39 24 39 23.45 38.55 23 38 23 38 23 4 23 4 23 3.45 23 3 23.45 3 24 3 24 3 47 3 47 3 47.55 3.45 48 4 48 4 48 38 48 38 48M 38 51C 38 51 4 51 4 51 1.79 51 0 49.21 0 47 0 47 0 24 0 24 0 21.79 1.79 20 4 20 4 20 38 20 38 20 40.21 20 42 21.79 42 24 42 24 42 47 42 47 42 49.21 40.21 51 38 51 38 51 38 51 38 51Z" fill="rgb(37,125,243)"/><path fillRule="evenodd" d="M 34 20C 34 20 34 15 34 15 34 8.38 28.62 3 22 3 22 3 20 3 20 3 13.38 3 8 8.38 8 15 8 15 8 20 8 20 8 20 34 20 34 20M 37 23C 37 23 5 23 5 23 5 23 5 15 5 15 5 6.72 11.72 0 20 0 20 0 22 0 22 0 30.28 0 37 6.72 37 15 37 15 37 23 37 23 37 23 37 23 37 23Z" fill="rgb(37,125,243)"/><path fillRule="evenodd" d="M 29 20C 29 20 29 16 29 16 29 11.59 25.41 8 21 8 16.59 8 13 11.59 13 16 13 16 13 20 13 20 13 20 29 20 29 20M 32 23C 32 23 10 23 10 23 10 23 10 16 10 16 10 9.92 14.92 5 21 5 27.08 5 32 9.92 32 16 32 16 32 23 32 23 32 23 32 23 32 23Z" fill="rgb(37,125,243)"/><path fillRule="evenodd" d="M 19.59 40.86C 19.2 40.86 18.82 40.72 18.53 40.42 18.53 40.42 13.58 35.47 13.58 35.47 12.99 34.89 12.99 33.94 13.58 33.35 13.87 33.06 14.25 32.91 14.64 32.91 15.02 32.91 15.4 33.06 15.7 33.35 15.7 33.35 19.59 37.24 19.59 37.24 19.59 37.24 26.3 30.52 26.3 30.52 26.6 30.23 26.98 30.09 27.36 30.09 27.75 30.09 28.13 30.23 28.42 30.52 29.01 31.11 29.01 32.06 28.42 32.65 28.42 32.65 20.65 40.42 20.65 40.42 20.35 40.72 19.97 40.86 19.59 40.86 19.59 40.86 19.59 40.86 19.59 40.86Z" fill="rgb(37,125,243)"/></svg>