<?xml version="1.0" encoding="utf-8"?>
<svg xmlns="http://www.w3.org/2000/svg"
	xmlns:xlink="http://www.w3.org/1999/xlink"
	width="41px" height="47px" viewBox="0 0 41 47">
<path fillRule="evenodd" d="M 20.5 42C 28.5 42 35 35.5 35 27.5 35 19.5 28.5 13 20.5 13 12.5 13 6 19.5 6 27.5 6 35.5 12.5 42 20.5 42M 20.5 45C 10.84 45 3 37.17 3 27.5 3 17.84 10.84 10 20.5 10 30.17 10 38 17.84 38 27.5 38 37.17 30.17 45 20.5 45 20.5 45 20.5 45 20.5 45Z" fill="rgb(37,125,243)"/><path fillRule="evenodd" d="M 3.34 15.01C 3.34 15.01 4.61 14.22 4.61 14.22 4.51 14.07 4.48 14.03 4.48 14.03 3.81 12.87 3.49 11.62 3.49 10.39 3.49 7.96 4.72 5.66 6.92 4.39 8 3.78 9.17 3.49 10.33 3.49 12.79 3.49 15.23 4.79 16.58 7.12 16.58 7.12 16.6 7.16 16.68 7.32 16.68 7.32 18.01 6.61 18.01 6.61 18.01 6.61 17.69 5.14 17.69 5.14 17.62 5.17 13.15 6.1 9.35 8.27 5.29 10.6 2.28 13.95 2.22 14.01 2.22 14.01 3.34 15.01 3.34 15.01 3.34 15.01 4.61 14.22 4.61 14.22 4.61 14.22 3.34 15.01 3.34 15.01 3.34 15.01 4.45 16.02 4.45 16.02 4.45 16.01 7.3 12.89 10.84 10.87 14.08 9 18.32 8.09 18.32 8.08 18.32 8.08 20.27 7.66 20.27 7.66 20.27 7.66 19.33 5.9 19.33 5.9 19.32 5.89 19.28 5.79 19.17 5.61 17.27 2.34 13.84 0.49 10.33 0.49 8.67 0.49 6.97 0.91 5.43 1.79 2.25 3.61 0.49 6.95 0.49 10.39 0.49 12.13 0.94 13.91 1.89 15.53 1.99 15.71 2.06 15.8 2.07 15.81 2.07 15.81 3.12 17.49 3.12 17.49 3.12 17.49 4.45 16.02 4.45 16.02 4.45 16.02 3.34 15.01 3.34 15.01 3.34 15.01 3.34 15.01 3.34 15.01Z" fill="rgb(37,125,243)"/><path fillRule="evenodd" d="M 37.66 15.01C 37.66 15.01 38.93 15.81 38.93 15.81 38.94 15.8 39.01 15.71 39.11 15.53 40.06 13.91 40.51 12.13 40.51 10.39 40.51 6.95 38.75 3.61 35.57 1.79 34.03 0.91 32.33 0.49 30.67 0.49 27.16 0.49 23.73 2.34 21.83 5.61 21.72 5.79 21.68 5.89 21.67 5.9 21.67 5.9 20.73 7.66 20.73 7.66 20.73 7.66 22.68 8.08 22.68 8.08 22.69 8.07 26.92 9 30.16 10.87 33.7 12.89 36.54 16.03 36.55 16.02 36.55 16.02 37.88 17.49 37.88 17.49 37.88 17.49 38.93 15.81 38.93 15.81 38.93 15.81 37.66 15.01 37.66 15.01 37.66 15.01 38.78 14.01 38.78 14.01 38.72 13.95 35.71 10.6 31.65 8.27 27.85 6.1 23.38 5.17 23.31 5.14 23.31 5.14 22.99 6.61 22.99 6.61 22.99 6.61 24.32 7.32 24.32 7.32 24.4 7.16 24.42 7.12 24.42 7.12 25.77 4.79 28.21 3.49 30.67 3.49 31.83 3.49 33 3.78 34.07 4.39 36.28 5.66 37.51 7.96 37.51 10.39 37.51 11.62 37.19 12.87 36.52 14.03 36.52 14.03 36.49 14.07 36.39 14.22 36.39 14.22 37.66 15.01 37.66 15.01 37.66 15.01 38.78 14.01 38.78 14.01 38.78 14.01 37.66 15.01 37.66 15.01 37.66 15.01 37.66 15.01 37.66 15.01Z" fill="rgb(37,125,243)"/><path fillRule="evenodd" d="M 9.46 47C 9.08 47 8.71 46.86 8.43 46.57 7.86 46 7.86 45.07 8.43 44.5 8.43 44.5 10.48 42.43 10.48 42.43 10.77 42.14 11.14 42 11.51 42 11.89 42 12.26 42.14 12.54 42.43 13.11 43 13.11 43.93 12.54 44.5 12.54 44.5 10.48 46.57 10.48 46.57 10.2 46.86 9.83 47 9.46 47 9.46 47 9.46 47 9.46 47Z" fill="rgb(37,125,243)"/><path fillRule="evenodd" d="M 31.54 46.97C 31.17 46.97 30.8 46.83 30.52 46.54 30.52 46.54 28.46 44.48 28.46 44.48 27.89 43.92 27.89 43 28.46 42.43 28.74 42.14 29.11 42 29.49 42 29.86 42 30.23 42.14 30.52 42.43 30.52 42.43 32.57 44.48 32.57 44.48 33.14 45.05 33.14 45.97 32.57 46.54 32.29 46.83 31.92 46.97 31.54 46.97 31.54 46.97 31.54 46.97 31.54 46.97Z" fill="rgb(37,125,243)"/><path fillRule="evenodd" d="M 20.48 28.99C 19.67 28.99 19.01 28.36 19.01 27.59 19.01 27.58 19.01 27.56 19.01 27.55 19.01 27.53 19.01 27.52 19.01 27.5 19.01 27.5 19.01 22.39 19.01 22.39 19.01 21.62 19.67 21 20.48 21 21.3 21 21.96 21.62 21.96 22.39 21.96 22.39 21.96 26.02 21.96 26.02 21.96 26.02 28.52 26.02 28.52 26.02 29.33 26.02 29.99 26.69 29.99 27.5 29.99 28.32 29.33 28.99 28.52 28.99 28.52 28.99 20.48 28.99 20.48 28.99 20.48 28.99 20.48 28.99 20.48 28.99Z" fill="rgb(37,125,243)"/></svg>