<?xml version="1.0" encoding="utf-8"?>
<svg xmlns="http://www.w3.org/2000/svg"
	xmlns:xlink="http://www.w3.org/1999/xlink"
	width="9px" height="18px" viewBox="0 0 9 18">
<path fillRule="evenodd" d="M 5.99 17.99C 5.99 17.99 1.99 17.99 1.99 17.99 1.99 17.99 1.99 9.5 1.99 9.5 1.99 9.5-0.01 9.5-0.01 9.5-0.01 9.5-0.01 6.22-0.01 6.22-0.01 6.22 1.99 6.22 1.99 6.22 1.99 6.22 1.99 4.26 1.99 4.26 1.99 1.59 3.12 0 6.32 0 6.32 0 8.99 0 8.99 0 8.99 0 8.99 3.27 8.99 3.27 8.99 3.27 7.32 3.27 7.32 3.27 6.07 3.27 5.99 3.73 5.99 4.58 5.99 4.58 5.99 6.22 5.99 6.22 5.99 6.22 9.01 6.22 9.01 6.22 9.01 6.22 8.65 9.5 8.65 9.5 8.65 9.5 5.99 9.5 5.99 9.5 5.99 9.5 5.99 17.99 5.99 17.99Z" fill="rgb(37,39,45)" opacity="0.30"/></svg>