<?xml version="1.0" encoding="utf-8"?>
<svg xmlns="http://www.w3.org/2000/svg"
	xmlns:xlink="http://www.w3.org/1999/xlink"
	width="16px" height="15px" viewBox="0 0 16 15">
<path fillRule="evenodd" d="M 12.58 15.01C 12.58 15.01 12.58 9.6 12.58 9.6 12.58 8.23 12.08 7.31 10.84 7.31 9.89 7.31 9.33 7.93 9.08 8.54 8.99 8.75 8.97 9.06 8.97 9.36 8.97 9.36 8.97 15.01 8.97 15.01 8.97 15.01 5.54 15.01 5.54 15.01 5.54 15.01 5.58 5.84 5.54 4.89 5.54 4.89 8.97 4.89 8.97 4.89 8.97 4.89 8.97 6.32 8.97 6.32 8.96 6.33 8.95 6.35 8.95 6.36 8.95 6.36 8.97 6.36 8.97 6.36 8.97 6.36 8.97 6.32 8.97 6.32 9.42 5.63 10.24 4.65 12.06 4.65 14.31 4.65 16.01 6.1 16.01 9.21 16.01 9.21 16.01 15.01 16.01 15.01 16.01 15.01 12.58 15.01 12.58 15.01ZM 1.93 3.51C 1.93 3.51 1.9 3.51 1.9 3.51 0.75 3.51 0.01 2.73 0.01 1.76 0.01 0.77 0.78 0.01 1.95 0.01 3.12 0.01 3.84 0.77 3.87 1.76 3.87 2.73 3.12 3.51 1.93 3.51ZM 3.64 15.01C 3.64 15.01 0.21 15.01 0.21 15.01 0.21 15.01 0.21 4.89 0.21 4.89 0.21 4.89 3.64 4.89 3.64 4.89 3.64 4.89 3.64 15.01 3.64 15.01Z" fill="rgb(37,39,45)" opacity="0.30"/></svg>