<?xml version="1.0" encoding="utf-8"?>
<svg xmlns="http://www.w3.org/2000/svg"
	xmlns:xlink="http://www.w3.org/1999/xlink"
	width="14px" height="17px" viewBox="0 0 14 17">
<path fillRule="evenodd" d="M 5.74 11.25C 5.27 13.59 4.69 15.83 2.98 17.01 2.45 13.47 3.76 10.81 4.36 7.98 3.33 6.34 4.48 3.04 6.66 3.85 9.34 4.86 4.34 9.96 7.69 10.59 11.2 11.26 12.62 4.85 10.45 2.77 7.32-0.24 1.32 2.7 2.06 7.01 2.24 8.06 3.39 8.38 2.52 9.83 0.51 9.41-0.09 7.92-0.01 5.92 0.12 2.65 3.1 0.37 6.08 0.05 9.87-0.35 13.41 1.36 13.9 4.72 14.45 8.52 12.2 12.63 8.15 12.33 7.06 12.25 6.6 11.74 5.74 11.25Z" fill="rgb(37,39,45)" opacity="0.30"/></svg>