<?xml version="1.0" encoding="utf-8"?>
<svg xmlns="http://www.w3.org/2000/svg"
	xmlns:xlink="http://www.w3.org/1999/xlink"
	width="10px" height="16px" viewBox="0 0 10 16">
<path fillRule="evenodd" d="M 8.5 12.78C 8.21 12.93 7.65 13.05 7.23 13.06 5.98 13.09 5.99 11.88 5.98 11.2 5.98 11.2 5.98 6.4 5.98 6.4 5.98 6.4 9 6.4 9 6.4 9 6.4 9 4 9 4 9 4 5.98 4 5.98 4 5.98 4 5.98-0 5.98-0 5.98-0 3.14 0 3.1 0 3.06 0 3 0.04 2.99 0.12 2.85 1.37 2.38 3.13-0 4-0 4-0 6.4-0 6.4-0 6.4 1.98 6.4 1.98 6.4 1.98 6.4 1.98 12 1.98 12 1.98 13.79 3.13 16.06 6.54 16 7.69 15.98 8.97 15.49 9.25 15.07 9.25 15.07 8.5 12.78 8.5 12.78Z" fill="rgb(37,39,45)" opacity="0.30"/></svg>