<?xml version="1.0" encoding="utf-8"?>
<svg xmlns="http://www.w3.org/2000/svg"
	xmlns:xlink="http://www.w3.org/1999/xlink"
	width="17px" height="14px" viewBox="0 0 17 14">
<path fillRule="evenodd" d="M 17 1.66C 16.37 1.94 15.7 2.13 15 2.21 15.72 1.78 16.27 1.08 16.53 0.26 15.86 0.66 15.11 0.96 14.32 1.12 13.68 0.43 12.77 0 11.77 0 9.84 0 8.28 1.58 8.28 3.53 8.28 3.81 8.31 4.08 8.37 4.34 5.48 4.19 2.91 2.79 1.19 0.65 0.89 1.17 0.71 1.78 0.71 2.43 0.71 3.65 1.33 4.73 2.27 5.37 1.69 5.35 1.16 5.19 0.69 4.92 0.69 4.94 0.69 4.95 0.69 4.97 0.69 6.68 1.89 8.11 3.48 8.43 3.19 8.51 2.88 8.56 2.56 8.56 2.34 8.56 2.12 8.54 1.91 8.49 2.35 9.9 3.64 10.92 5.17 10.95 3.97 11.9 2.47 12.46 0.83 12.46 0.55 12.46 0.28 12.45 0 12.41 1.55 13.41 3.38 14 5.35 14 11.76 14 15.27 8.61 15.27 3.95 15.27 3.79 15.27 3.64 15.26 3.49 15.94 2.99 16.53 2.37 17 1.66 17 1.66 17 1.66 17 1.66Z" fill="rgb(37,39,45)" opacity="0.30"/></svg>